<svg xmlns="http://www.w3.org/2000/svg" width="150" height="124" viewBox="0 0 150 124">
  <g id="Group_841" data-name="Group 841" transform="translate(-226 -1088)">
    <g id="Rectangle_3" data-name="Rectangle 3" transform="translate(226 1088)" fill="#fff" stroke="#707070" stroke-width="5">
      <rect width="150" height="124" stroke="none"/>
      <rect x="2.5" y="2.5" width="145" height="119" fill="none"/>
    </g>
    <g id="clapperboard" transform="translate(264.7 1116.45)">
      <g id="Group_43" data-name="Group 43" transform="translate(2.665 24.644)">
        <g id="Group_42" data-name="Group 42">
          <path id="Path_108" data-name="Path 108" d="M82.611,191.81H22.31a1.371,1.371,0,0,0-1.371,1.371v32.892a6.86,6.86,0,0,0,6.852,6.852H77.129a6.86,6.86,0,0,0,6.852-6.852V193.181A1.371,1.371,0,0,0,82.611,191.81ZM81.24,226.072a4.116,4.116,0,0,1-4.111,4.111H27.792a4.116,4.116,0,0,1-4.111-4.111V194.551H81.24Z" transform="translate(-20.939 -191.81)" fill="#4a9a47" stroke="#4a9a47" stroke-width="1"/>
        </g>
      </g>
      <g id="Group_45" data-name="Group 45" transform="translate(0 0)">
        <g id="Group_44" data-name="Group 44" transform="translate(0 0)">
          <path id="Path_109" data-name="Path 109" d="M65.858,11.962,63.526,3.111A4.14,4.14,0,0,0,58.611.1L3.392,13.2a4.107,4.107,0,0,0-3.07,5.008L2.9,28.419A1.366,1.366,0,0,0,4.23,29.452a1.352,1.352,0,0,0,.34-.041,1.367,1.367,0,0,0,.989-1.664l-.151-.595,59.427-13.5a1.374,1.374,0,0,0,1.023-1.689ZM4.737,24.493l-1.76-6.948A1.373,1.373,0,0,1,4.014,15.87l55.219-13.1a1.236,1.236,0,0,1,.3-.036A1.386,1.386,0,0,1,60.87,3.791l1.976,7.5Z" transform="translate(-0.194 0)" fill="#4a9a47" stroke="#4a9a47" stroke-width="1"/>
        </g>
      </g>
      <g id="Group_47" data-name="Group 47" transform="translate(8.146 24.645)">
        <g id="Group_46" data-name="Group 46">
          <path id="Path_110" data-name="Path 110" d="M71.061,191.957a1.382,1.382,0,0,0-1.842.614l-5.482,10.964a1.372,1.372,0,0,0,2.456,1.225L71.675,193.8A1.373,1.373,0,0,0,71.061,191.957Z" transform="translate(-63.593 -191.816)" fill="#4a9a47" stroke="#4a9a47" stroke-width="1"/>
        </g>
      </g>
      <g id="Group_49" data-name="Group 49" transform="translate(21.85 24.645)">
        <g id="Group_48" data-name="Group 48">
          <path id="Path_111" data-name="Path 111" d="M177.725,191.957a1.378,1.378,0,0,0-1.839.614L170.4,203.535a1.371,1.371,0,1,0,2.453,1.225l5.482-10.964A1.373,1.373,0,0,0,177.725,191.957Z" transform="translate(-170.26 -191.816)" fill="#4a9a47" stroke="#4a9a47" stroke-width="1"/>
        </g>
      </g>
      <g id="Group_51" data-name="Group 51" transform="translate(35.555 24.645)">
        <g id="Group_50" data-name="Group 50">
          <path id="Path_112" data-name="Path 112" d="M284.391,191.957a1.379,1.379,0,0,0-1.839.614l-5.482,10.964a1.371,1.371,0,1,0,2.453,1.225l5.482-10.964A1.373,1.373,0,0,0,284.391,191.957Z" transform="translate(-276.926 -191.816)" fill="#4a9a47" stroke="#4a9a47" stroke-width="1"/>
        </g>
      </g>
      <g id="Group_53" data-name="Group 53" transform="translate(49.26 24.645)">
        <g id="Group_52" data-name="Group 52">
          <path id="Path_113" data-name="Path 113" d="M391.058,191.957a1.378,1.378,0,0,0-1.839.614l-5.482,10.964a1.371,1.371,0,1,0,2.453,1.225l5.482-10.964A1.373,1.373,0,0,0,391.058,191.957Z" transform="translate(-383.593 -191.816)" fill="#4a9a47" stroke="#4a9a47" stroke-width="1"/>
        </g>
      </g>
      <g id="Group_55" data-name="Group 55" transform="translate(2.665 35.608)">
        <g id="Group_54" data-name="Group 54">
          <path id="Path_114" data-name="Path 114" d="M82.611,277.143H22.31a1.371,1.371,0,0,0,0,2.741h60.3a1.371,1.371,0,1,0,0-2.741Z" transform="translate(-20.939 -277.143)" fill="#4a9a47" stroke="#4a9a47" stroke-width="1"/>
        </g>
      </g>
      <g id="Group_57" data-name="Group 57" transform="translate(5.51 12.411)">
        <g id="Group_56" data-name="Group 56">
          <path id="Path_115" data-name="Path 115" d="M54.857,106.435l-9.44-9.44a1.37,1.37,0,0,0-1.938,1.938l9.44,9.443a1.377,1.377,0,0,0,.97.4,1.357,1.357,0,0,0,.968-.4A1.372,1.372,0,0,0,54.857,106.435Z" transform="translate(-43.078 -96.594)" fill="#4a9a47" stroke="#4a9a47" stroke-width="1"/>
        </g>
      </g>
      <g id="Group_59" data-name="Group 59" transform="translate(18.91 9.365)">
        <g id="Group_58" data-name="Group 58">
          <path id="Path_116" data-name="Path 116" d="M159.164,82.733l-9.448-9.44a1.37,1.37,0,1,0-1.938,1.938l9.445,9.44a1.371,1.371,0,1,0,1.94-1.938Z" transform="translate(-147.377 -72.892)" fill="#4a9a47" stroke="#4a9a47" stroke-width="1"/>
        </g>
      </g>
      <g id="Group_61" data-name="Group 61" transform="translate(32.325 6.317)">
        <g id="Group_60" data-name="Group 60">
          <path id="Path_117" data-name="Path 117" d="M263.552,59.013l-9.432-9.443a1.37,1.37,0,0,0-1.938,1.938l9.432,9.443a1.377,1.377,0,0,0,.97.4,1.354,1.354,0,0,0,.968-.4A1.371,1.371,0,0,0,263.552,59.013Z" transform="translate(-251.782 -49.17)" fill="#4a9a47" stroke="#4a9a47" stroke-width="1"/>
        </g>
      </g>
      <g id="Group_63" data-name="Group 63" transform="translate(45.714 3.275)">
        <g id="Group_62" data-name="Group 62">
          <path id="Path_118" data-name="Path 118" d="M367.768,35.333l-9.434-9.443a1.37,1.37,0,1,0-1.938,1.938l9.434,9.443a1.37,1.37,0,0,0,1.938-1.938Z" transform="translate(-355.995 -25.49)" fill="#4a9a47" stroke="#4a9a47" stroke-width="1"/>
        </g>
      </g>
    </g>
  </g>
</svg>
