<svg xmlns="http://www.w3.org/2000/svg" width="149" height="124" viewBox="0 0 149 124">
  <g id="Group_833" data-name="Group 833" transform="translate(-37 -235)">
    <g id="Rectangle_3" data-name="Rectangle 3" transform="translate(37 235)" fill="#fff" stroke="#707070" stroke-width="5">
      <rect width="149" height="124" stroke="none"/>
      <rect x="2.5" y="2.5" width="144" height="119" fill="none"/>
    </g>
    <g id="bathtub" transform="translate(62.2 256.59)">
      <g id="Group_2" data-name="Group 2" transform="translate(0 0)">
        <g id="Group_1" data-name="Group 1">
          <path id="Path_1" data-name="Path 1" d="M81.294,59.379H79.85V29.061A12.94,12.94,0,0,0,66.856,16.067c-6.39,0-10.986,4.738-11.5,11.681a7.135,7.135,0,0,0-5.825,7.088,1.364,1.364,0,0,0,1.444,1.444h11.55a1.364,1.364,0,0,0,1.444-1.444,7.136,7.136,0,0,0-5.713-7.067c.431-4.588,3.187-8.815,8.6-8.815A10.044,10.044,0,0,1,76.963,29.061V59.379H33.51A7.136,7.136,0,0,0,26.431,53.6a7.537,7.537,0,0,0-5.775-2.888,7.138,7.138,0,0,0-6.353,3.9A8.576,8.576,0,0,0,10.55,53.6a7.136,7.136,0,0,0-7.079,5.775h-.14a4.331,4.331,0,0,0,0,8.663H5.066l3.9,15.448a10.186,10.186,0,0,0,9.818,7.652h1.155L18.058,94.9a1.274,1.274,0,0,0,.577,1.877.868.868,0,0,0,.577.144,1.516,1.516,0,0,0,1.3-.722l2.527-5.053H63.1l2.454,4.909a1.388,1.388,0,0,0,1.3.866c.289,0,.433,0,.577-.289a1.521,1.521,0,0,0,.577-1.877L66.2,91.134a10.222,10.222,0,0,0,9.46-7.5L79.6,68.042h1.7a4.331,4.331,0,1,0,0-8.662ZM60.937,33.392H52.708A4.39,4.39,0,0,1,56.894,30.5,4.205,4.205,0,0,1,60.937,33.392ZM10.55,56.492a4.851,4.851,0,0,1,3.465,1.588,1.307,1.307,0,0,0,1.444.433,1.4,1.4,0,0,0,1.011-1.155A4.47,4.47,0,0,1,20.8,53.6a4.034,4.034,0,0,1,3.754,2.166,1.452,1.452,0,0,0,1.588.722h.433a4.205,4.205,0,0,1,4.042,2.888H6.507A4.206,4.206,0,0,1,10.55,56.492ZM73.064,82.768a7.408,7.408,0,0,1-7.074,5.486H18.924a7.408,7.408,0,0,1-7.074-5.486L8.1,68.042H76.529Zm8.229-17.614H3.331a1.444,1.444,0,1,1,0-2.887H81.294a1.444,1.444,0,1,1,0,2.887Z" transform="translate(1 -16.067)" fill="#4a9a47"/>
          <path id="Path_2" data-name="Path 2" d="M299.111,156.209a1.364,1.364,0,0,0,1.444-1.444v-.722a1.444,1.444,0,1,0-2.887,0v.722A1.364,1.364,0,0,0,299.111,156.209Z" transform="translate(-247.136 -129.5)" fill="#4a9a47"/>
          <path id="Path_3" data-name="Path 3" d="M299.111,191.21a1.447,1.447,0,0,0,1.444-1.444v-1.588a1.444,1.444,0,0,0-2.887,0v1.588A1.364,1.364,0,0,0,299.111,191.21Z" transform="translate(-247.136 -157.859)" fill="#4a9a47"/>
          <path id="Path_4" data-name="Path 4" d="M299.111,228.743a1.364,1.364,0,0,0,1.444-1.444v-.722a1.444,1.444,0,1,0-2.887,0v.722A1.364,1.364,0,0,0,299.111,228.743Z" transform="translate(-247.136 -189.762)" fill="#4a9a47"/>
          <path id="Path_5" data-name="Path 5" d="M333.244,156.209a1.364,1.364,0,0,0,1.444-1.444v-.722a1.444,1.444,0,1,0-2.887,0v.722A1.364,1.364,0,0,0,333.244,156.209Z" transform="translate(-275.494 -129.5)" fill="#4a9a47"/>
          <path id="Path_6" data-name="Path 6" d="M331.8,189.765a1.364,1.364,0,0,0,1.444,1.444,1.447,1.447,0,0,0,1.444-1.444v-1.588a1.444,1.444,0,1,0-2.887,0Z" transform="translate(-275.494 -157.858)" fill="#4a9a47"/>
          <path id="Path_7" data-name="Path 7" d="M331.8,227.3a1.444,1.444,0,1,0,2.887,0v-.722a1.444,1.444,0,1,0-2.887,0Z" transform="translate(-275.494 -189.761)" fill="#4a9a47"/>
          <path id="Path_8" data-name="Path 8" d="M367.378,156.209a1.364,1.364,0,0,0,1.444-1.444v-.722a1.444,1.444,0,0,0-2.887,0v.722A1.364,1.364,0,0,0,367.378,156.209Z" transform="translate(-303.853 -129.5)" fill="#4a9a47"/>
          <path id="Path_9" data-name="Path 9" d="M365.933,189.765a1.364,1.364,0,0,0,1.444,1.444,1.447,1.447,0,0,0,1.444-1.444v-1.588a1.444,1.444,0,1,0-2.887,0v1.588Z" transform="translate(-303.852 -157.858)" fill="#4a9a47"/>
          <path id="Path_10" data-name="Path 10" d="M365.933,227.3a1.444,1.444,0,1,0,2.887,0v-.722a1.444,1.444,0,1,0-2.887,0Z" transform="translate(-303.852 -189.761)" fill="#4a9a47"/>
        </g>
      </g>
    </g>
  </g>
</svg>
