<svg xmlns="http://www.w3.org/2000/svg" width="149" height="124" viewBox="0 0 149 124">
  <g id="Group_842" data-name="Group 842" transform="translate(-37 -1088)">
    <g id="Rectangle_3" data-name="Rectangle 3" transform="translate(37 1088)" fill="#fff" stroke="#707070" stroke-width="5">
      <rect width="149" height="124" stroke="none"/>
      <rect x="2.5" y="2.5" width="144" height="119" fill="none"/>
    </g>
    <g id="appartment" transform="translate(79.205 1110.385)">
      <circle id="Ellipse_2" data-name="Ellipse 2" cx="1.25" cy="1.25" r="1.25" transform="translate(17.846 65.862)" fill="#4a9a47"/>
      <path id="Path_100" data-name="Path 100" d="M113.3,77.626H110.12V7.741a1.369,1.369,0,0,0,1.075-1.335V1.367A1.369,1.369,0,0,0,109.828,0h-42.7a1.171,1.171,0,0,0,0,2.343h41.721V5.431H55.793V2.343h6.652a1.171,1.171,0,0,0,0-2.343H54.818a1.369,1.369,0,0,0-1.367,1.367V6.406a1.369,1.369,0,0,0,1.075,1.335V77.626h-3.18a1.171,1.171,0,0,0,0,2.343H113.3a1.171,1.171,0,1,0,0-2.343Zm-38.375,0H63.617V60.869a5.653,5.653,0,1,1,11.306,0V77.626Zm2.343,0V60.869a8,8,0,1,0-15.992,0V77.626H56.869V7.773h50.908V77.626Z" transform="translate(-50.175 0)" fill="#4a9a47"/>
      <path id="Path_101" data-name="Path 101" d="M124.946,80.9V73.192a2.111,2.111,0,0,0-2.109-2.109h-5.314a2.111,2.111,0,0,0-2.109,2.109V80.9a1.793,1.793,0,0,0-1.758,1.79v3.45a1.794,1.794,0,0,0,1.792,1.792h9.463a1.794,1.794,0,0,0,1.792-1.792v-3.45a1.793,1.793,0,0,0-1.758-1.79ZM122.6,73.426V80.9h-4.846V73.426Zm1.758,12.162H116V83.239h8.361Z" transform="translate(-103.742 -59.981)" fill="#4a9a47"/>
      <path id="Path_102" data-name="Path 102" d="M216.525,87.93h9.463a1.794,1.794,0,0,0,1.792-1.792v-3.45a1.793,1.793,0,0,0-1.758-1.79V73.192a2.111,2.111,0,0,0-2.109-2.109H218.6a2.111,2.111,0,0,0-2.109,2.109V80.9a1.793,1.793,0,0,0-1.758,1.79v3.45A1.794,1.794,0,0,0,216.525,87.93Zm8.912-2.343h-8.362V83.239h8.362Zm-1.758-12.162V80.9h-4.846V73.426Z" transform="translate(-189.031 -59.981)" fill="#4a9a47"/>
      <path id="Path_103" data-name="Path 103" d="M326.1,80.9V73.192a2.111,2.111,0,0,0-2.109-2.109h-5.314a2.111,2.111,0,0,0-2.109,2.109V80.9a1.793,1.793,0,0,0-1.758,1.79v3.45A1.794,1.794,0,0,0,316.6,87.93h9.463a1.794,1.794,0,0,0,1.792-1.792v-3.45A1.793,1.793,0,0,0,326.1,80.9Zm-2.343-7.472V80.9H318.91V73.426Zm1.758,12.162h-8.362V83.239h8.362Z" transform="translate(-273.476 -59.981)" fill="#4a9a47"/>
      <path id="Path_104" data-name="Path 104" d="M124.946,212.909V205.2a2.111,2.111,0,0,0-2.109-2.109h-5.314a2.111,2.111,0,0,0-2.109,2.109v7.707a1.793,1.793,0,0,0-1.758,1.79v3.45a1.794,1.794,0,0,0,1.792,1.792h9.463a1.794,1.794,0,0,0,1.792-1.792V214.7a1.793,1.793,0,0,0-1.758-1.79Zm-2.343-7.472v7.471h-4.846v-7.471Zm1.758,12.162H116V215.25h8.361Z" transform="translate(-103.742 -171.373)" fill="#4a9a47"/>
      <path id="Path_105" data-name="Path 105" d="M227.779,218.149V214.7a1.793,1.793,0,0,0-1.758-1.79V205.2a2.111,2.111,0,0,0-2.109-2.109H218.6a2.111,2.111,0,0,0-2.109,2.109v7.707a1.793,1.793,0,0,0-1.758,1.79v3.45a1.794,1.794,0,0,0,1.792,1.792h9.463A1.794,1.794,0,0,0,227.779,218.149Zm-4.1-12.713v7.471h-4.846v-7.471Zm1.758,12.162h-8.362v-2.348h8.362Z" transform="translate(-189.03 -171.372)" fill="#4a9a47"/>
      <path id="Path_106" data-name="Path 106" d="M326.1,212.909V205.2a2.111,2.111,0,0,0-2.109-2.109h-5.314a2.111,2.111,0,0,0-2.109,2.109v7.707a1.793,1.793,0,0,0-1.758,1.79v3.45a1.794,1.794,0,0,0,1.792,1.792h9.463a1.794,1.794,0,0,0,1.792-1.792V214.7A1.793,1.793,0,0,0,326.1,212.909Zm-2.343-7.472v7.471H318.91v-7.471Zm1.758,12.162h-8.362V215.25h8.362Z" transform="translate(-273.476 -171.373)" fill="#4a9a47"/>
      <path id="Path_107" data-name="Path 107" d="M271.987,350.989V340.628a2.111,2.111,0,0,0-2.109-2.109h-5.26a1.171,1.171,0,1,0,0,2.343h5.026v3.891H255.427v-3.891h4.506a1.171,1.171,0,1,0,0-2.343h-4.74a2.111,2.111,0,0,0-2.109,2.109v10.362a1.793,1.793,0,0,0-1.758,1.79v3.45a1.794,1.794,0,0,0,1.792,1.792h18.835a1.794,1.794,0,0,0,1.792-1.792v-3.45A1.793,1.793,0,0,0,271.987,350.989Zm-2.343-3.893v3.891H255.427V347.1Zm1.758,8.583H253.669v-2.348H271.4Z" transform="translate(-219.908 -285.646)" fill="#4a9a47"/>
    </g>
  </g>
</svg>
