<svg xmlns="http://www.w3.org/2000/svg" width="149" height="124" viewBox="0 0 149 124">
  <g id="Group_836" data-name="Group 836" transform="translate(-37 -448)">
    <g id="Rectangle_3" data-name="Rectangle 3" transform="translate(37 448)" fill="#fff" stroke="#707070" stroke-width="5">
      <rect width="149" height="124" stroke="none"/>
      <rect x="2.5" y="2.5" width="144" height="119" fill="none"/>
    </g>
    <g id="Group_5" data-name="Group 5" transform="translate(55.614 477.506)">
      <g id="door_1_" data-name="door (1)" transform="translate(0 20.39)">
        <g id="Group_4" data-name="Group 4">
          <g id="Group_3" data-name="Group 3">
            <path id="Path_26" data-name="Path 26" d="M57.707,42.911H53.165V-.243A.715.715,0,0,0,52.407-1H22.124a.715.715,0,0,0-.757.757V42.911H16.824a.757.757,0,0,0,0,1.514H57.707a.757.757,0,0,0,0-1.514Zm-31.8,0V3.543H48.622V42.911Zm24.227,0V2.785a.715.715,0,0,0-.757-.757H25.152a.715.715,0,0,0-.757.757V42.911H22.881V.514H51.65v42.4H50.136Z" transform="translate(-16.067 1)" fill="#4a9a47" stroke="#4a9a47" stroke-width="1"/>
          </g>
        </g>
      </g>
      <g id="garage" transform="translate(45.813)">
        <path id="Path_28" data-name="Path 28" d="M228.784,430.2h-7.2a.968.968,0,0,0,0,1.936h7.2a.968.968,0,0,0,0-1.936Z" transform="translate(-192.15 -374.782)" fill="#4a9a47" stroke="#4a9a47" stroke-width="1"/>
        <path id="Path_29" data-name="Path 29" d="M228.784,401.057h-7.2a.968.968,0,0,0,0,1.936h7.2a.968.968,0,0,0,0-1.936Z" transform="translate(-192.15 -349.401)" fill="#4a9a47" stroke="#4a9a47" stroke-width="1"/>
        <path id="Path_30" data-name="Path 30" d="M303.312,398.024a3.238,3.238,0,1,0,3.24,3.24A3.242,3.242,0,0,0,303.312,398.024Zm0,4.54a1.3,1.3,0,1,1,1.3-1.3A1.3,1.3,0,0,1,303.312,402.564Z" transform="translate(-261.351 -346.76)" fill="#4a9a47" stroke="#4a9a47" stroke-width="1"/>
        <path id="Path_31" data-name="Path 31" d="M164.957,398.024a3.238,3.238,0,1,0,3.24,3.24A3.243,3.243,0,0,0,164.957,398.024Zm0,4.54a1.3,1.3,0,1,1,1.3-1.3A1.3,1.3,0,0,1,164.957,402.564Z" transform="translate(-140.847 -346.76)" fill="#4a9a47" stroke="#4a9a47" stroke-width="1"/>
        <path id="Path_32" data-name="Path 32" d="M64.924,14.022l-.151-.046L34.652,1.182a3.456,3.456,0,0,0-3.232,0L1.3,13.976l-.149.046C.3,14.278,0,14.717,0,15.7V22.1a1.606,1.606,0,0,0,1.6,1.6H4.17V65.085a1.57,1.57,0,0,0,1.568,1.568H60.332A1.571,1.571,0,0,0,61.9,65.085V39.323a.968.968,0,1,0-1.936,0V64.717H55.593v-38.2a.968.968,0,0,0-.968-.968H11.445a.968.968,0,0,0-.968.968v38.2H6.106V22.741a.968.968,0,0,0-.968-.968h-3.2V15.8l.006,0c.025-.008.05-.018.074-.028L32.178,2.962a1.616,1.616,0,0,1,1.715,0L64.054,15.774c.024.01.049.02.074.028l.01,0v5.968h-3.2a.968.968,0,0,0-.968.968V34.857a.968.968,0,1,0,1.936,0V23.709h2.562a1.608,1.608,0,0,0,1.608-1.6V15.7c0-.982-.3-1.42-1.15-1.676ZM18.735,48.394a1.223,1.223,0,0,1,0-2.447h1.628L19.2,48.394h-.467Zm7.852,13.935H39.482v1.626a2.682,2.682,0,0,0,.112.762H26.476a2.686,2.686,0,0,0,.111-.762V62.328Zm-7.521-1.936c0-.042,0-.08,0-.108V53.828a2.036,2.036,0,0,1,.321-1.3l1.04-2.194H45.644l1.041,2.2A1.993,1.993,0,0,1,47,53.812c0,.088,0,6.539,0,6.581H19.067Zm27.8-12-1.159-2.447h1.629a1.223,1.223,0,0,1,0,2.447h-.47Zm-3.587-3.051c.014.035,1.445,3.051,1.445,3.051H21.345l2.545-5.367c.453-.956.753-1.505,1.04-1.666a5.85,5.85,0,0,1,2.106-.169h12a5.846,5.846,0,0,1,2.1.169c.288.162.589.711,1.043,1.667ZM20.594,64.717a.773.773,0,0,1-.762-.762V62.328h4.821v1.626a.773.773,0,0,1-.762.762Zm21.59,0a.765.765,0,0,1-.766-.762V62.328h4.825v1.626a.775.775,0,0,1-.766.762ZM12.413,32.39H30.9a.968.968,0,1,0,0-1.936H12.413v-2.97H53.657v2.97h-18.3a.968.968,0,1,0,0,1.936h18.3V64.717H48.067a2.682,2.682,0,0,0,.112-.762V62.119a1.911,1.911,0,0,0,.761-1.834s0-6.378,0-6.463a3.564,3.564,0,0,0-.508-2.128l-.661-1.4a3.16,3.16,0,0,0-.433-6.288H44.792l-.86-1.814a5.127,5.127,0,0,0-1.844-2.525,6.115,6.115,0,0,0-3.057-.417H27.042a6.117,6.117,0,0,0-3.059.417A5.114,5.114,0,0,0,22.141,42.2l-.86,1.814H18.735A3.16,3.16,0,0,0,18.3,50.3l-.662,1.4a3.619,3.619,0,0,0-.507,2.142v6.448A1.907,1.907,0,0,0,17.9,62.12v1.834a2.686,2.686,0,0,0,.111.762H12.413V32.39Z" transform="translate(0 -0.78)" fill="#4a9a47" stroke="#4a9a47" stroke-width="1"/>
        <path id="Path_33" data-name="Path 33" d="M82.774,111.943a1.592,1.592,0,0,0-1.59,1.59v3.757a1.592,1.592,0,0,0,1.59,1.59h8.384a1.592,1.592,0,0,0,1.59-1.59v-3.757a1.592,1.592,0,0,0-1.59-1.59Zm8.038,5H83.12v-3.065h7.692v3.065Z" transform="translate(-70.707 -97.597)" fill="#4a9a47" stroke="#4a9a47" stroke-width="1"/>
        <path id="Path_34" data-name="Path 34" d="M212.771,111.943a1.592,1.592,0,0,0-1.59,1.59v3.757a1.592,1.592,0,0,0,1.59,1.59h8.384a1.591,1.591,0,0,0,1.59-1.59v-3.757a1.592,1.592,0,0,0-1.59-1.59Zm8.039,5h-7.692v-3.065h7.692Z" transform="translate(-183.928 -97.597)" fill="#4a9a47" stroke="#4a9a47" stroke-width="1"/>
        <path id="Path_35" data-name="Path 35" d="M342.772,111.943a1.593,1.593,0,0,0-1.594,1.59v3.757a1.593,1.593,0,0,0,1.594,1.59h8.381a1.592,1.592,0,0,0,1.59-1.59v-3.757a1.592,1.592,0,0,0-1.59-1.59Zm8.035,5h-7.692v-3.065h7.692Z" transform="translate(-297.149 -97.597)" fill="#4a9a47" stroke="#4a9a47" stroke-width="1"/>
      </g>
      <path id="padlock" d="M12.885,5.648h-.471V3.766a3.766,3.766,0,0,0-7.531,0V5.648H4.412A1.414,1.414,0,0,0,3,7.061v6.59a1.414,1.414,0,0,0,1.412,1.412h8.473A1.414,1.414,0,0,0,14.3,13.65V7.061A1.414,1.414,0,0,0,12.885,5.648ZM6.138,3.766a2.51,2.51,0,0,1,5.021,0V5.648H6.138Zm3.138,6.729v1.43a.628.628,0,0,1-1.255,0v-1.43a1.255,1.255,0,1,1,1.255,0Z" transform="translate(11.55 38.371)" fill="#4a9a47" stroke="#4a9a47" stroke-width="1"/>
    </g>
  </g>
</svg>
