<svg xmlns="http://www.w3.org/2000/svg" width="149" height="124" viewBox="0 0 149 124">
  <g id="Group_847" data-name="Group 847" transform="translate(-224 -1717)">
    <g id="Rectangle_3" data-name="Rectangle 3" transform="translate(224 1717)" fill="#fff" stroke="#707070" stroke-width="5">
      <rect width="149" height="124" stroke="none"/>
      <rect x="2.5" y="2.5" width="144" height="119" fill="none"/>
    </g>
    <g id="Electric_Plug" data-name="Electric Plug" transform="translate(258.1 1746.8)">
      <path id="Path_80" data-name="Path 80" d="M46.863,63.838H55.35A3.648,3.648,0,0,0,58.988,60.2V50.33a4.85,4.85,0,0,0,3.638-4.68V43.164A13.351,13.351,0,0,0,74.75,29.888v-9.7a3.648,3.648,0,0,0-3.638-3.638H69.9V6.85a4.85,4.85,0,1,0-9.7,0v9.7H55.35V6.85a4.85,4.85,0,0,0-9.7,0v9.7H44.438A3.648,3.648,0,0,0,40.8,20.188v9.7A13.351,13.351,0,0,0,52.925,43.164V45.65a4.85,4.85,0,0,0,3.638,4.68V60.2a1.213,1.213,0,0,1-1.213,1.212H46.863a3.631,3.631,0,0,0-3.516,4.535A3.7,3.7,0,0,0,47,68.688H71.113A1.212,1.212,0,0,1,72.325,69.9v1.213a1.212,1.212,0,0,1-1.212,1.212H27.463a8.5,8.5,0,0,1-8.488-8.487V40.8H29.888a3.648,3.648,0,0,0,3.637-3.638V5.638A3.648,3.648,0,0,0,29.888,2H5.638A3.648,3.648,0,0,0,2,5.638V37.163A3.648,3.648,0,0,0,5.638,40.8H16.55V63.838A10.929,10.929,0,0,0,27.463,74.75h43.65a3.648,3.648,0,0,0,3.637-3.638V69.9a3.648,3.648,0,0,0-3.638-3.638H47a1.334,1.334,0,0,1-1.309-.909,1.166,1.166,0,0,1,.34-1.164A1.125,1.125,0,0,1,46.863,63.838ZM62.625,6.85a2.425,2.425,0,1,1,4.85,0V20.188h-4.85Zm-14.55,0a2.425,2.425,0,0,1,4.85,0V20.188h-4.85Zm4.862,33.877a10.913,10.913,0,0,1-9.712-10.84v-9.7a1.213,1.213,0,0,1,1.213-1.213H45.65V21.4a1.213,1.213,0,0,0,1.213,1.212h7.275A1.213,1.213,0,0,0,55.35,21.4V18.975H60.2V21.4a1.212,1.212,0,0,0,1.212,1.212h7.275A1.213,1.213,0,0,0,69.9,21.4V18.975h1.213a1.212,1.212,0,0,1,1.212,1.213v9.7a10.912,10.912,0,0,1-9.712,10.84,4.838,4.838,0,1,0-9.676,0ZM55.35,45.65V40.8a2.425,2.425,0,1,1,4.85,0v4.85a2.425,2.425,0,0,1-4.85,0ZM5.638,38.375a1.213,1.213,0,0,1-1.213-1.213V5.638A1.213,1.213,0,0,1,5.638,4.425h24.25A1.213,1.213,0,0,1,31.1,5.638V37.163a1.213,1.213,0,0,1-1.212,1.213Z" transform="translate(-2 -2)" fill="#4a9a47" stroke="#4a9a47" stroke-width="1"/>
      <rect id="Rectangle_5" data-name="Rectangle 5" width="1" height="2" transform="translate(54.9 40.2)" fill="#4a9a47" stroke="#4a9a47" stroke-width="1"/>
      <path id="Path_81" data-name="Path 81" d="M24.792,17.27a1.213,1.213,0,0,0-1.031-.57H17.7V8.212a1.213,1.213,0,0,0-.934-1.176,1.193,1.193,0,0,0-1.358.63L8.133,22.217a1.213,1.213,0,0,0,1.079,1.758h6.063v8.488a1.212,1.212,0,0,0,.934,1.176,1.1,1.1,0,0,0,.279.036,1.212,1.212,0,0,0,1.079-.667l7.275-14.55A1.221,1.221,0,0,0,24.792,17.27ZM17.7,27.321V22.762a1.213,1.213,0,0,0-1.213-1.213H11.176l4.1-8.2v4.559a1.212,1.212,0,0,0,1.212,1.213H21.8Z" transform="translate(-0.724 -0.937)" fill="#4a9a47" stroke="#4a9a47" stroke-width="1"/>
    </g>
  </g>
</svg>
