<svg xmlns="http://www.w3.org/2000/svg" width="149" height="124" viewBox="0 0 149 124">
  <g id="Group_838" data-name="Group 838" transform="translate(-37 -662)">
    <g id="Rectangle_3" data-name="Rectangle 3" transform="translate(37 662)" fill="#fff" stroke="#707070" stroke-width="5">
      <rect width="149" height="124" stroke="none"/>
      <rect x="2.5" y="2.5" width="144" height="119" fill="none"/>
    </g>
    <g id="home_1_" data-name="home (1)" transform="translate(65.8 677.618)">
      <path id="Path_51" data-name="Path 51" d="M85.435,37.974l1.993,1.354a1.514,1.514,0,0,0,2.106-.4l3.4-5.019a1.515,1.515,0,0,0-.4-2.106L48.391,1.845a1.516,1.516,0,0,0-1.7,0L2.541,31.8a1.516,1.516,0,0,0-.4,2.105l3.4,5.019a1.514,1.514,0,0,0,2.106.4l1.995-1.355V53.14a3.769,3.769,0,0,0-1.995,2.048C5.1,61.487,2.064,69.767,2.064,73.459c0,5.442,3.168,9.668,7.579,10.464v6.21H2.064v3.032h90.95V90.134H85.435ZM7.2,35.968,5.5,33.456,47.539,4.93l42.04,28.527-1.7,2.51L48.391,9.173a1.515,1.515,0,0,0-1.7,0ZM5.1,73.459c0-2.463,1.954-8.709,5.362-17.135a.756.756,0,0,1,1.4,0C15.268,64.751,17.222,71,17.222,73.459c0,4.391-2.551,7.579-6.063,7.579S5.1,77.851,5.1,73.459Zm7.579,10.464c4.411-.8,7.579-5.022,7.579-10.464,0-3.693-3.036-11.972-5.584-18.272a3.769,3.769,0,0,0-1.995-2.048V35.917L47.539,12.259,82.4,35.917V65.422l-.255-.382a1.573,1.573,0,0,0-2.522,0l-3.032,4.548a1.516,1.516,0,0,0-.255.84v3.032H73.308V70.428a1.524,1.524,0,0,0-.255-.841l-3.032-4.548a1.573,1.573,0,0,0-2.522,0l-3.032,4.548a1.524,1.524,0,0,0-.255.841v3.032H61.182V70.428a1.524,1.524,0,0,0-.255-.841L57.9,65.039a1.573,1.573,0,0,0-2.522,0l-3.032,4.548a1.524,1.524,0,0,0-.255.841V90.134h-9.1v-28.8a1.514,1.514,0,0,0-1.516-1.516H24.8a1.514,1.514,0,0,0-1.516,1.516v28.8H12.675Zm45.475,6.21H55.118V70.887l1.516-2.274,1.516,2.274Zm3.032-13.643h3.032v3.032H61.182Zm0,6.063h3.032v7.579H61.182Zm9.1,7.579H67.245V70.887l1.516-2.274,1.516,2.274Zm3.032-13.643H76.34v3.032H73.308Zm0,6.063H76.34v7.579H73.308ZM39.96,90.134H26.317V62.848H39.96Zm39.412,0V70.887l1.516-2.274L82.4,70.887V90.134Z" transform="translate(-1.876 -1.584)" fill="#4a9a47"/>
      <path id="Path_52" data-name="Path 52" d="M31.063,40.222h9.1a6.069,6.069,0,0,0,6.063-6.063v-9.1A6.069,6.069,0,0,0,40.158,19h-9.1A6.069,6.069,0,0,0,25,25.063v9.1A6.069,6.069,0,0,0,31.063,40.222Zm-3.032-6.063V31.127H34.1V37.19H31.063A3.035,3.035,0,0,1,28.032,34.158ZM40.158,37.19H37.127V31.127H43.19v3.032A3.035,3.035,0,0,1,40.158,37.19ZM43.19,25.063V28.1H37.127V22.032h3.032A3.035,3.035,0,0,1,43.19,25.063ZM31.063,22.032H34.1V28.1H28.032V25.063A3.035,3.035,0,0,1,31.063,22.032Z" transform="translate(10.052 7.401)" fill="#4a9a47"/>
      <path id="Path_53" data-name="Path 53" d="M23,50h3.032v3.032H23Z" transform="translate(9.02 23.392)" fill="#4a9a47"/>
    </g>
  </g>
</svg>
