<svg xmlns="http://www.w3.org/2000/svg" width="149" height="124" viewBox="0 0 149 124">
  <g id="Group_855" data-name="Group 855" transform="translate(-224 -2524)">
    <g id="Rectangle_3" data-name="Rectangle 3" transform="translate(224 2524)" fill="#fff" stroke="#707070" stroke-width="5">
      <rect width="149" height="124" stroke="none"/>
      <rect x="2.5" y="2.5" width="144" height="119" fill="none"/>
    </g>
    <g id="XMLID_1517_" transform="translate(266.65 2557.7)">
      <g id="XMLID_588_" transform="translate(0 0)">
        <g id="XMLID_42_" transform="translate(0)">
          <path id="XMLID_250_" d="M289.352,115.359h6.491a1.352,1.352,0,0,0,1.352-1.352v-8.655A1.352,1.352,0,0,0,295.843,104h-6.491A1.352,1.352,0,0,0,288,105.352v8.655A1.352,1.352,0,0,0,289.352,115.359ZM290.7,106.7h3.786v5.95H290.7Z" transform="translate(-249.054 -89.936)" fill="#4a9a47" stroke="#4a9a47" stroke-width="1"/>
          <path id="XMLID_236_" d="M81.352,115.359h6.491a1.352,1.352,0,0,0,1.352-1.352v-8.655A1.352,1.352,0,0,0,87.843,104H81.352A1.352,1.352,0,0,0,80,105.352v8.655A1.352,1.352,0,0,0,81.352,115.359ZM82.7,106.7h3.786v5.95H82.7Z" transform="translate(-69.182 -89.936)" fill="#4a9a47" stroke="#4a9a47" stroke-width="1"/>
          <path id="XMLID_229_" d="M185.352,115.359h6.491a1.352,1.352,0,0,0,1.352-1.352v-8.655A1.352,1.352,0,0,0,191.843,104h-6.491A1.352,1.352,0,0,0,184,105.352v8.655A1.352,1.352,0,0,0,185.352,115.359ZM186.7,106.7h3.786v5.95H186.7Z" transform="translate(-159.118 -89.936)" fill="#4a9a47" stroke="#4a9a47" stroke-width="1"/>
          <path id="XMLID_223_" d="M87.843,235.359a1.352,1.352,0,0,0,1.352-1.352v-8.655A1.352,1.352,0,0,0,87.843,224H81.352A1.352,1.352,0,0,0,80,225.352v8.655a1.352,1.352,0,0,0,1.352,1.352ZM82.7,226.7h3.786v5.95H82.7Z" transform="translate(-69.182 -193.709)" fill="#4a9a47" stroke="#4a9a47" stroke-width="1"/>
          <path id="XMLID_207_" d="M185.352,235.359h6.491a1.352,1.352,0,0,0,1.352-1.352v-8.655A1.352,1.352,0,0,0,191.843,224h-6.491A1.352,1.352,0,0,0,184,225.352v8.655A1.352,1.352,0,0,0,185.352,235.359ZM186.7,226.7h3.786v5.95H186.7Z" transform="translate(-159.118 -193.709)" fill="#4a9a47" stroke="#4a9a47" stroke-width="1"/>
          <path id="XMLID_181_" d="M209.352,50.7a1.353,1.353,0,1,0-.956-.4A1.362,1.362,0,0,0,209.352,50.7Z" transform="translate(-179.872 -41.509)" fill="#4a9a47" stroke="#4a9a47" stroke-width="1"/>
          <path id="XMLID_63_" d="M64.8,35.892A2.627,2.627,0,0,0,59.943,37a13.327,13.327,0,0,1-.367,2.068l-.006-.063a14.261,14.261,0,0,0-3.856-8.556V9.2h1.893A1.352,1.352,0,0,0,58.96,7.843V1.352A1.352,1.352,0,0,0,57.607,0H1.352A1.352,1.352,0,0,0,0,1.352V7.843A1.352,1.352,0,0,0,1.352,9.2H3.246V67.885A1.352,1.352,0,0,0,4.6,69.237H51.26A18,18,0,0,0,69.237,51.26,27.659,27.659,0,0,0,64.8,35.892ZM5.95,9.2H23.395a1.352,1.352,0,1,0,0-2.7H2.7V2.7H56.255V6.491H35.565a1.352,1.352,0,1,0,0,2.7H53.01V28.224a18.261,18.261,0,0,0-1.833-1.053,1.6,1.6,0,0,0-2.207,1.986c1.149,3.077.626,5.23-1.746,7.2a13.146,13.146,0,0,0-3.079,3.737,16.955,16.955,0,0,0-2.293-4.627,2.627,2.627,0,0,0-4.76,1.29,19.77,19.77,0,0,1-2.045,7.335c-.363.793-.717,1.569-1.012,2.426H18.662a1.352,1.352,0,0,0-1.352,1.352V66.532H5.95ZM20.014,49.223h8.114V66.532H20.014ZM30.832,66.532V49.223h2.573a16.237,16.237,0,0,0-.122,2.037,17.98,17.98,0,0,0,8.5,15.272Zm15.079-5.35c0-3.257,1.861-4.943,3.66-6.574a12.289,12.289,0,0,0,2.38-2.6c3.065,2.823,4.659,6.582,4.659,9.178a5.349,5.349,0,1,1-10.7,0ZM58.5,64.7a8,8,0,0,0,.812-3.52c0-4.357-2.989-9.53-7.269-12.579a1.352,1.352,0,0,0-2.137,1.1c0,.9-.818,1.69-2.153,2.9-1.919,1.739-4.548,4.122-4.548,8.578a8,8,0,0,0,.812,3.52,15.286,15.286,0,0,1-8.03-13.443,12.648,12.648,0,0,1,1.518-6.044,22.327,22.327,0,0,0,2.26-8.01,14.766,14.766,0,0,1,2.48,8.771c-.066.536-.077.875-.079.932a1.352,1.352,0,0,0,2.687.252,9.847,9.847,0,0,0,.094-.987,12.325,12.325,0,0,1,4-7.737A8.027,8.027,0,0,0,52.2,30.947a11.366,11.366,0,0,1,4.674,8.246,16.058,16.058,0,0,1-.565,6.132,1.352,1.352,0,0,0,2.265,1.364,17.179,17.179,0,0,0,4.043-9.2A24.727,24.727,0,0,1,66.532,51.26,15.286,15.286,0,0,1,58.5,64.7Z" transform="translate(0 0)" fill="#4a9a47" stroke="#4a9a47" stroke-width="1"/>
        </g>
      </g>
    </g>
  </g>
</svg>
