<svg xmlns="http://www.w3.org/2000/svg" width="149" height="124" viewBox="0 0 149 124">
  <g id="Group_844" data-name="Group 844" transform="translate(-39 -1290)">
    <g id="Rectangle_3" data-name="Rectangle 3" transform="translate(39 1290)" fill="#fff" stroke="#707070" stroke-width="5">
      <rect width="149" height="124" stroke="none"/>
      <rect x="2.5" y="2.5" width="144" height="119" fill="none"/>
    </g>
    <g id="heater" transform="translate(69.864 1312.263)">
      <path id="Path_18" data-name="Path 18" d="M19.1,16.375H70.958A8.187,8.187,0,1,0,70.958,0H8.188A8.194,8.194,0,0,0,0,8.188V51.855a8.194,8.194,0,0,0,8.187,8.187H24.563a2.737,2.737,0,0,1,2.729,2.729v8.187H32.75V62.771a8.194,8.194,0,0,0-8.187-8.188H8.188a2.737,2.737,0,0,1-2.729-2.729V8.188A2.738,2.738,0,0,1,8.188,5.458H70.958a2.729,2.729,0,0,1,0,5.459H19.1a8.187,8.187,0,0,0,0,16.375H70.958a2.729,2.729,0,0,1,0,5.459H19.1a8.187,8.187,0,1,0,0,16.375H70.958a2.729,2.729,0,1,1,0,5.458H55.948a8.194,8.194,0,0,0-8.187,8.188v8.187h5.459V62.771a2.737,2.737,0,0,1,2.729-2.729H70.958a8.187,8.187,0,1,0,0-16.375H19.1a2.729,2.729,0,0,1,0-5.459H70.958a8.187,8.187,0,1,0,0-16.375H19.1a2.729,2.729,0,0,1,0-5.459Zm0,0" transform="translate(0 0)" fill="#4a9a47"/>
      <path id="Path_19" data-name="Path 19" d="M152.8,467.863h8.188a2.729,2.729,0,0,1,2.729,2.729v1.365a2.729,2.729,0,0,1-2.729,2.729H152.8a2.729,2.729,0,0,1-2.729-2.729v-1.365A2.729,2.729,0,0,1,152.8,467.863Zm0,0" transform="translate(-126.873 -395.54)" fill="#4a9a47"/>
      <path id="Path_20" data-name="Path 20" d="M285.213,467.863H293.4a2.729,2.729,0,0,1,2.729,2.729v1.365a2.729,2.729,0,0,1-2.729,2.729h-8.187a2.729,2.729,0,0,1-2.729-2.729v-1.365A2.729,2.729,0,0,1,285.213,467.863Zm0,0" transform="translate(-238.818 -395.54)" fill="#4a9a47"/>
    </g>
  </g>
</svg>
