<svg xmlns="http://www.w3.org/2000/svg" width="149" height="125" viewBox="0 0 149 125">
  <g id="Group_840" data-name="Group 840" transform="translate(-37 -874)">
    <g id="Rectangle_3" data-name="Rectangle 3" transform="translate(37 874)" fill="#fff" stroke="#707070" stroke-width="5">
      <rect width="149" height="125" stroke="none"/>
      <rect x="2.5" y="2.5" width="144" height="120" fill="none"/>
    </g>
    <path id="hot-water" d="M71.8,29.039V24.953a2.919,2.919,0,0,0-5.837,0v4.086H60.121V14.593A2.918,2.918,0,0,0,57.2,11.674H30.644a2.918,2.918,0,0,0-2.919,2.919V45.529H21.889V11.674a5.844,5.844,0,0,1,5.837-5.837h32.4a5.844,5.844,0,0,1,5.837,5.837,2.919,2.919,0,0,0,5.837,0A11.687,11.687,0,0,0,60.121,0h-32.4A11.687,11.687,0,0,0,16.052,11.674V45.529H14.593a2.918,2.918,0,0,0-2.919,2.918V57.2H5.837V52.825a2.919,2.919,0,1,0-5.837,0V67.417a2.919,2.919,0,0,0,5.837,0V63.04h5.837V71.8a2.918,2.918,0,0,0,2.919,2.919h20.43A2.918,2.918,0,0,0,37.941,71.8V48.447a2.918,2.918,0,0,0-2.918-2.918H33.563V17.511H54.284V29.039a2.919,2.919,0,1,0,0,5.837H71.8a2.919,2.919,0,1,0,0-5.837ZM32.1,68.877H17.511V51.366H32.1ZM61.872,57.2a2.919,2.919,0,1,1-5.837,0c0-3.034,2.108-4.9,3.8-6.4,1.624-1.438,2.619-2.392,2.619-3.813a2.918,2.918,0,1,1,5.837,0c0,4.121-2.65,6.469-4.585,8.183C62.977,55.818,61.872,56.8,61.872,57.2ZM73.838,61.58c0,4.121-2.65,6.469-4.585,8.183-.731.648-1.835,1.626-1.835,2.032a2.919,2.919,0,1,1-5.837,0c0-3.034,2.109-4.9,3.8-6.4C67.006,63.956,68,63,68,61.58a2.919,2.919,0,0,1,5.837,0Zm0,0" transform="translate(68.05 899.55)" fill="#4a9a47"/>
  </g>
</svg>
