<svg xmlns="http://www.w3.org/2000/svg" width="150" height="124" viewBox="0 0 150 124">
  <g id="Group_835" data-name="Group 835" transform="translate(-226 -448)">
    <g id="Rectangle_3" data-name="Rectangle 3" transform="translate(226 448)" fill="#fff" stroke="#707070" stroke-width="5">
      <rect width="150" height="124" stroke="none"/>
      <rect x="2.5" y="2.5" width="145" height="119" fill="none"/>
    </g>
    <g id="interior-design" transform="translate(256.581 473.645)">
      <path id="Path_36" data-name="Path 36" d="M86.528,11.3H46.958L3.261.082A2.611,2.611,0,0,0,0,2.611V70.793a2.613,2.613,0,0,0,3.261,2.53l43.7-11.214H86.528A2.612,2.612,0,0,0,89.139,59.5V13.907A2.611,2.611,0,0,0,86.528,11.3ZM5.223,5.978l38.793,9.956V57.471L5.223,67.427Zm57.8,50.908V50.632a2.611,2.611,0,0,0,0-5.12V40.1h7.1V56.886Zm20.89,0H75.353V37.492a2.612,2.612,0,0,0-2.611-2.611H60.415A2.612,2.612,0,0,0,57.8,37.492V56.886H49.24V16.519H83.916Zm0,0" transform="translate(0 0)" fill="#4a9a47"/>
      <path id="Path_37" data-name="Path 37" d="M101.663,120.653,83.223,116.6a2.611,2.611,0,0,0-3.172,2.551v27.6a2.61,2.61,0,0,0,3.172,2.55l18.44-4.051a2.611,2.611,0,0,0,2.051-2.55V123.2a2.612,2.612,0,0,0-2.051-2.551ZM85.274,122.4l4,.878v7.4a2.609,2.609,0,0,0,0,4.384v7.571l-4,.878Zm13.217,18.2-4,.878v-6.424a2.607,2.607,0,0,0,0-4.383v-6.25l4,.878Zm0,0" transform="translate(-66.114 -96.252)" fill="#4a9a47"/>
    </g>
  </g>
</svg>
