<svg xmlns="http://www.w3.org/2000/svg" width="149" height="124" viewBox="0 0 149 124">
  <g id="Group_851" data-name="Group 851" transform="translate(-224 -2143)">
    <g id="Rectangle_3" data-name="Rectangle 3" transform="translate(224 2143)" fill="#fff" stroke="#707070" stroke-width="5">
      <rect width="149" height="124" stroke="none"/>
      <rect x="2.5" y="2.5" width="144" height="119" fill="none"/>
    </g>
    <g id="wifi-router" transform="translate(258.472 2164.385)">
      <path id="Path_122" data-name="Path 122" d="M78,110.571H71.61L85.146,78.989a2.505,2.505,0,1,0-4.605-1.974L66.159,110.571h-46.8L4.975,77.015A2.505,2.505,0,0,0,.37,78.989L13.9,110.571H7.516A7.525,7.525,0,0,0,0,118.087v15.032a7.525,7.525,0,0,0,7.516,7.516h2.672v2.672a2.505,2.505,0,0,0,5.011,0v-2.672H70.316v2.672a2.505,2.505,0,0,0,5.011,0v-2.672H78a7.525,7.525,0,0,0,7.516-7.516V118.087A7.525,7.525,0,0,0,78,110.571ZM80.5,133.119A2.508,2.508,0,0,1,78,135.624H7.516a2.508,2.508,0,0,1-2.505-2.505V118.087a2.508,2.508,0,0,1,2.505-2.505H78a2.508,2.508,0,0,1,2.505,2.505Z" transform="translate(0 -65.475)" fill="#4a9a47"/>
      <path id="Path_123" data-name="Path 123" d="M220.581,197.7a2.505,2.505,0,1,0,3.543,3.543,2.474,2.474,0,0,1,3.523,0,2.505,2.505,0,1,0,3.543-3.543,7.485,7.485,0,0,0-10.609,0Z" transform="translate(-183.128 -165.436)" fill="#4a9a47"/>
      <path id="Path_124" data-name="Path 124" d="M96.772,30.062a32.545,32.545,0,0,1,46.063,0,2.505,2.505,0,0,0,3.544-3.542,37.555,37.555,0,0,0-53.152,0,2.505,2.505,0,0,0,3.544,3.542Z" transform="translate(-77.046 -15.5)" fill="#4a9a47"/>
      <path id="Path_125" data-name="Path 125" d="M174.648,87.125a2.506,2.506,0,0,0,0-3.543,27.532,27.532,0,0,0-38.972,0,2.505,2.505,0,1,0,3.545,3.541,22.521,22.521,0,0,1,31.882,0A2.505,2.505,0,0,0,174.648,87.125Z" transform="translate(-112.407 -65.479)" fill="#4a9a47"/>
      <path id="Path_126" data-name="Path 126" d="M202.915,144.184a2.505,2.505,0,0,0,0-3.543,17.514,17.514,0,0,0-24.792,0,2.505,2.505,0,1,0,3.543,3.543,12.5,12.5,0,0,1,17.706,0A2.505,2.505,0,0,0,202.915,144.184Z" transform="translate(-147.762 -115.457)" fill="#4a9a47"/>
      <path id="Path_127" data-name="Path 127" d="M303.505,345.5A2.505,2.505,0,0,0,301,348.005v5.011a2.505,2.505,0,1,0,5.011,0v-5.011A2.505,2.505,0,0,0,303.505,345.5Z" transform="translate(-250.726 -290.383)" fill="#4a9a47"/>
      <path id="Path_128" data-name="Path 128" d="M363.505,345.5A2.505,2.505,0,0,0,361,348.005v5.011a2.505,2.505,0,1,0,5.011,0v-5.011A2.505,2.505,0,0,0,363.505,345.5Z" transform="translate(-300.705 -290.383)" fill="#4a9a47"/>
      <path id="Path_129" data-name="Path 129" d="M423.505,345.5A2.505,2.505,0,0,0,421,348.005v5.011a2.505,2.505,0,1,0,5.011,0v-5.011A2.505,2.505,0,0,0,423.505,345.5Z" transform="translate(-350.684 -290.383)" fill="#4a9a47"/>
    </g>
  </g>
</svg>
