<svg xmlns="http://www.w3.org/2000/svg" width="150" height="124" viewBox="0 0 150 124">
  <g id="Group_834" data-name="Group 834" transform="translate(-226 -235)">
    <g id="Rectangle_3" data-name="Rectangle 3" transform="translate(226 235)" fill="#fff" stroke="#707070" stroke-width="5">
      <rect width="150" height="124" stroke="none"/>
      <rect x="2.5" y="2.5" width="145" height="119" fill="none"/>
    </g>
    <g id="sink" transform="translate(255.265 251.115)">
      <path id="Path_11" data-name="Path 11" d="M105.53,305.649h48.944a1.53,1.53,0,0,0,1.53-1.53V273.53a1.53,1.53,0,0,0-1.53-1.53H105.53a1.53,1.53,0,0,0-1.53,1.53v30.59A1.53,1.53,0,0,0,105.53,305.649Zm47.415-3.059H131.531V275.059h21.413Zm-45.885-27.531h21.413V302.59H107.059Zm0,0" transform="translate(-84.116 -219.997)" fill="#4a9a47"/>
      <path id="Path_12" data-name="Path 12" d="M200,344h3.059v6.118H200Zm0,0" transform="translate(-161.762 -278.231)" fill="#4a9a47"/>
      <path id="Path_13" data-name="Path 13" d="M264,344h3.059v6.118H264Zm0,0" transform="translate(-213.526 -278.231)" fill="#4a9a47"/>
      <path id="Path_14" data-name="Path 14" d="M90.241,117.413h-3.1a7.572,7.572,0,0,0,1.569-4.589v-3.059a7.657,7.657,0,0,0-7.648-7.648,1.53,1.53,0,0,0-1.53,1.53v.04a7.572,7.572,0,0,0-4.589-1.569,1.53,1.53,0,0,0-1.53,1.53v.04a7.572,7.572,0,0,0-4.589-1.569,1.53,1.53,0,0,0-1.53,1.53v.04a7.572,7.572,0,0,0-4.589-1.569,1.53,1.53,0,0,0-1.53,1.53v.04a7.572,7.572,0,0,0-4.589-1.569,1.53,1.53,0,0,0-1.53,1.53v13.766H47.415v-15.3a6.118,6.118,0,1,0-12.236,0v3.059h3.059v-3.059a3.059,3.059,0,0,1,6.118,0v15.3H13.766v-3.507a1.07,1.07,0,0,1,.317-.765,4.11,4.11,0,0,0,1.213-2.928v-.448a4.589,4.589,0,0,0-4.589-4.589v-3.059H7.648v3.059a4.589,4.589,0,0,0-4.589,4.589v.448a4.11,4.11,0,0,0,1.213,2.928,1.07,1.07,0,0,1,.317.765v3.507H1.53A1.53,1.53,0,0,0,0,118.943v6.118a1.53,1.53,0,0,0,1.53,1.53h1.53v41.3a1.53,1.53,0,0,0,1.53,1.53H87.182a1.53,1.53,0,0,0,1.53-1.53v-41.3h1.53a1.53,1.53,0,0,0,1.53-1.53v-6.118A1.53,1.53,0,0,0,90.241,117.413Zm-7.648-11.975a4.6,4.6,0,0,1,3.059,4.327v3.059a4.6,4.6,0,0,1-3.059,4.327Zm-6.118,0a4.6,4.6,0,0,1,3.059,4.327v3.059a4.6,4.6,0,0,1-3.059,4.327Zm-6.118,0a4.6,4.6,0,0,1,3.059,4.327v3.059a4.6,4.6,0,0,1-3.059,4.327Zm-6.118,0a4.6,4.6,0,0,1,3.059,4.327v3.059a4.6,4.6,0,0,1-3.059,4.327Zm-6.118,0a4.6,4.6,0,0,1,3.059,4.327v3.059a4.6,4.6,0,0,1-3.059,4.327Zm-51.687,5.54a1.07,1.07,0,0,1-.317-.765v-.448a1.53,1.53,0,0,1,1.53-1.53h3.059a1.53,1.53,0,0,1,1.53,1.53v.448a1.07,1.07,0,0,1-.317.765,4.11,4.11,0,0,0-1.213,2.928v3.507H7.648v-3.507A4.11,4.11,0,0,0,6.435,110.978Zm79.218,55.379H6.118V126.59H85.653Zm3.059-42.826H3.059v-3.059H88.712Zm0,0" transform="translate(0 -77.646)" fill="#4a9a47"/>
      <path id="Path_15" data-name="Path 15" d="M90.241,0H1.53A1.53,1.53,0,0,0,0,1.53V13.766A1.53,1.53,0,0,0,1.53,15.3H90.241a1.53,1.53,0,0,0,1.53-1.53V1.53A1.53,1.53,0,0,0,90.241,0ZM3.059,3.059h41.3v9.177H3.059Zm85.652,9.177h-41.3V3.059h41.3Zm0,0" fill="#4a9a47"/>
      <path id="Path_16" data-name="Path 16" d="M200,32h3.059v3.059H200Zm0,0" transform="translate(-161.762 -25.882)" fill="#4a9a47"/>
      <path id="Path_17" data-name="Path 17" d="M264,32h3.059v3.059H264Zm0,0" transform="translate(-213.526 -25.882)" fill="#4a9a47"/>
    </g>
  </g>
</svg>
