<svg xmlns="http://www.w3.org/2000/svg" width="150" height="124" viewBox="0 0 150 124">
  <g id="Group_837" data-name="Group 837" transform="translate(-226 -662)">
    <g id="Rectangle_3" data-name="Rectangle 3" transform="translate(226 662)" fill="#fff" stroke="#707070" stroke-width="5">
      <rect width="150" height="124" stroke="none"/>
      <rect x="2.5" y="2.5" width="145" height="119" fill="none"/>
    </g>
    <g id="washing-machine" transform="translate(256.581 680.831)">
      <path id="Path_54" data-name="Path 54" d="M122,180h2.453v27.307H122Z" transform="translate(-102.051 -150.567)" fill="#4a9a47" stroke="#4a9a47" stroke-width="1"/>
      <path id="Path_55" data-name="Path 55" d="M180.147,0H127.624L122,5.624V26.98h2.453V22.074h58.865V76.361H172.281v2.453h9.3l-2.453,2.453H134.263v2.453h45.883l5.624-5.624V5.624ZM128.64,2.453h50.491l2.453,2.453h-55.4Zm-4.187,17.169V7.358h58.865V19.622Z" transform="translate(-102.051)" fill="#4a9a47" stroke="#4a9a47" stroke-width="1"/>
      <path id="Path_56" data-name="Path 56" d="M184.5,205.165A21.666,21.666,0,1,0,206.166,183.5,21.69,21.69,0,0,0,184.5,205.165Zm40.878,0a19.213,19.213,0,1,1-19.213-19.213A19.235,19.235,0,0,1,225.378,205.165Z" transform="translate(-154.332 -153.495)" fill="#4a9a47" stroke="#4a9a47" stroke-width="1"/>
      <path id="Path_57" data-name="Path 57" d="M214.45,230.218A16.768,16.768,0,0,0,242.1,242.974l-1.593-1.865a14.316,14.316,0,0,1-23.608-10.89c0-.413.019-.822.053-1.226h11.3l4.905,4.905h11.888a14.3,14.3,0,0,1-2.943,5.613l1.865,1.593a16.768,16.768,0,1,0-29.524-10.885Zm30.6-3.679h-8.3v2.453h8.724c.034.4.053.813.053,1.226s-.019.82-.054,1.226h-11.3l-4.905-4.905H217.383a14.317,14.317,0,0,1,27.671,0Z" transform="translate(-179.384 -178.548)" fill="#4a9a47" stroke="#4a9a47" stroke-width="1"/>
      <path id="Path_58" data-name="Path 58" d="M440.679,60a3.679,3.679,0,1,0,3.679,3.679A3.683,3.683,0,0,0,440.679,60Zm0,4.905a1.226,1.226,0,1,1,1.226-1.226A1.228,1.228,0,0,1,440.679,64.905Z" transform="translate(-365.544 -50.189)" fill="#4a9a47" stroke="#4a9a47" stroke-width="1"/>
      <path id="Path_59" data-name="Path 59" d="M380.68,60a3.679,3.679,0,1,0,3.679,3.679A3.683,3.683,0,0,0,380.68,60Zm0,4.905a1.226,1.226,0,1,1,1.226-1.226A1.228,1.228,0,0,1,380.68,64.905Z" transform="translate(-315.356 -50.189)" fill="#4a9a47" stroke="#4a9a47" stroke-width="1"/>
      <path id="Path_60" data-name="Path 60" d="M320.681,60a3.679,3.679,0,1,0,3.679,3.679A3.683,3.683,0,0,0,320.681,60Zm0,4.905a1.226,1.226,0,1,1,1.226-1.226A1.228,1.228,0,0,1,320.681,64.905Z" transform="translate(-265.168 -50.189)" fill="#4a9a47" stroke="#4a9a47" stroke-width="1"/>
      <path id="Path_61" data-name="Path 61" d="M152,67.358h17.169V60H152Zm2.453-4.905h12.263v2.453H154.453Z" transform="translate(-127.146 -50.189)" fill="#4a9a47" stroke="#4a9a47" stroke-width="1"/>
      <path id="Path_62" data-name="Path 62" d="M3.171,362,0,365.171v3.469l1.945,1.945L0,372.529V376l1.945,1.945L0,379.887v3.469l3.171,3.171H26.588l3.171-3.171v-3.469l-1.945-1.945L29.76,376v-3.469l-1.945-1.945,1.945-1.945v-3.469L26.588,362Zm24.136,20.34-1.734,1.734H4.187L2.453,382.34V380.9l1.734-1.734h4.4v-2.453h-4.4l-1.734-1.734v-1.437l1.734-1.734H25.573l1.734,1.734v1.437l-1.734,1.734H11.037v2.453H25.573l1.734,1.734Zm0-14.716-1.734,1.734H4.187l-1.734-1.734v-1.437l1.734-1.734H25.573l1.734,1.734Z" transform="translate(0 -302.808)" fill="#4a9a47" stroke="#4a9a47" stroke-width="1"/>
      <path id="Path_63" data-name="Path 63" d="M227,474.5h2.453v2.453H227Z" transform="translate(-189.881 -396.912)" fill="#4a9a47" stroke="#4a9a47" stroke-width="1"/>
      <path id="Path_64" data-name="Path 64" d="M392,150h2.453v2.453H392Z" transform="translate(-327.903 -125.472)" fill="#4a9a47" stroke="#4a9a47" stroke-width="1"/>
      <path id="Path_65" data-name="Path 65" d="M197,474.5h2.453v2.453H197Z" transform="translate(-164.787 -396.912)" fill="#4a9a47" stroke="#4a9a47" stroke-width="1"/>
      <path id="Path_66" data-name="Path 66" d="M422,150h9.811v2.453H422Z" transform="translate(-352.998 -125.472)" fill="#4a9a47" stroke="#4a9a47" stroke-width="1"/>
    </g>
  </g>
</svg>
