<svg xmlns="http://www.w3.org/2000/svg" width="149" height="125" viewBox="0 0 149 125">
  <g id="Group_850" data-name="Group 850" transform="translate(-39 -1929)">
    <g id="Rectangle_3" data-name="Rectangle 3" transform="translate(39 1929)" fill="#fff" stroke="#707070" stroke-width="5">
      <rect width="149" height="125" stroke="none"/>
      <rect x="2.5" y="2.5" width="144" height="120" fill="none"/>
    </g>
    <g id="mouse" transform="translate(72.7 1963.55)">
      <path id="Path_97" data-name="Path 97" d="M86.328,55.669c0-4.941-1.992-9.042-3.917-13.011-2.578-5.311-5.244-10.8-3.344-18.707a1.205,1.205,0,0,0-2.341-.564c-2.1,8.743.757,14.63,3.521,20.323,1.89,3.893,3.675,7.573,3.675,11.957,0,3.517-2.543,6.345-7.547,8.427a21.033,21.033,0,0,0-6.7-14.761c-5.144-4.655-12.978-6.838-21.495-5.983-3.329.334-7.233,1.713-11.655,4.1A6.919,6.919,0,0,0,30.7,43.5,6.315,6.315,0,0,0,25.074,45.5c-.22-.036-.444-.069-.675-.087a6.327,6.327,0,0,0-5.365,1.771c-2.33,2.414-2.992,6.9-2.127,14.515-4.235,3.677-7.944,7.2-10.43,9.569l-.271.257a4.745,4.745,0,0,0,3.287,8.165H57.242c9.065,0,18.716-1.033,19.165-13.011,8.174-3.11,9.921-7.677,9.921-11.008ZM30.491,45.9a4.559,4.559,0,0,1,3.932,2.737q-1.731,1.022-3.559,2.235a9.14,9.14,0,0,0-1.541-2.935,6.736,6.736,0,0,0-1.687-1.494,4.521,4.521,0,0,1,2.855-.543ZM57.242,77.279H9.493a2.334,2.334,0,0,1-1.621-4.014l.266-.255c2.564-2.437,6.437-6.12,10.829-9.909a1.206,1.206,0,0,0,.4-1.09c-.318-2.609-1.257-10.406,1.4-13.157a3.993,3.993,0,0,1,3.423-1.047,4.453,4.453,0,0,1,3.256,1.648,7.9,7.9,0,0,1,1.46,3.469,1.174,1.174,0,0,0,.049.265A22.5,22.5,0,0,1,29,59.438a1.2,1.2,0,1,0,2.39.3,25.187,25.187,0,0,0,.039-6.338q2.666-1.813,5.1-3.2c.014-.008.03-.015.043-.024,4.584-2.608,8.552-4.1,11.841-4.425,7.84-.784,15,1.17,19.639,5.37,3.9,3.533,5.968,8.61,5.968,14.682C74.019,75.4,67.868,77.279,57.242,77.279Z" transform="translate(-4.75 -22.525)" fill="#4a9a47" stroke="#4a9a47" stroke-width="1"/>
      <path id="Path_98" data-name="Path 98" d="M77.858,96.058H72.122a1.2,1.2,0,0,0,0,2.41h5.737a1.2,1.2,0,0,0,0-2.41Z" transform="translate(-25.366 -45.436)" fill="#4a9a47" stroke="#4a9a47" stroke-width="1"/>
      <path id="Path_99" data-name="Path 99" d="M28.62,82.917a3.27,3.27,0,1,0,3.27,3.27,3.27,3.27,0,0,0-3.27-3.27Zm0,4.131a.861.861,0,1,1,.861-.861A.861.861,0,0,1,28.62,87.048Z" transform="translate(-11.168 -41.341)" fill="#4a9a47" stroke="#4a9a47" stroke-width="1"/>
    </g>
  </g>
</svg>
