<svg xmlns="http://www.w3.org/2000/svg" width="150" height="124" viewBox="0 0 150 124">
  <g id="Group_853" data-name="Group 853" transform="translate(-226 -2320)">
    <g id="Rectangle_3" data-name="Rectangle 3" transform="translate(226 2320)" fill="#fff" stroke="#707070" stroke-width="5">
      <rect width="150" height="124" stroke="none"/>
      <rect x="2.5" y="2.5" width="145" height="119" fill="none"/>
    </g>
    <g id="house" transform="translate(258.4 2341.607)">
      <g id="Group_65" data-name="Group 65" transform="translate(57.612 47.785)">
        <g id="Group_64" data-name="Group 64">
          <path id="Path_134" data-name="Path 134" d="M351,317.752h-4.245A1.755,1.755,0,0,0,345,319.505v11.33a1.755,1.755,0,0,0,1.753,1.753H351a1.755,1.755,0,0,0,1.753-1.753v-11.33A1.755,1.755,0,0,0,351,317.752Zm-.751,12.332H347.5v-9.827h2.742Z" transform="translate(-344.999 -317.752)" fill="#4a9a47" stroke="#4a9a47" stroke-width="1"/>
        </g>
      </g>
      <g id="Group_67" data-name="Group 67" transform="translate(68.875 47.785)">
        <g id="Group_66" data-name="Group 66">
          <path id="Path_135" data-name="Path 135" d="M418.44,317.752H414.2a1.755,1.755,0,0,0-1.753,1.753v11.33a1.755,1.755,0,0,0,1.753,1.753h4.245a1.755,1.755,0,0,0,1.753-1.753v-11.33A1.755,1.755,0,0,0,418.44,317.752Zm-.751,12.332h-2.742v-9.827h2.742Z" transform="translate(-412.442 -317.752)" fill="#4a9a47" stroke="#4a9a47" stroke-width="1"/>
        </g>
      </g>
      <g id="Group_69" data-name="Group 69" transform="translate(5.811 16.068)">
        <g id="Group_68" data-name="Group 68">
          <path id="Path_136" data-name="Path 136" d="M46.191,132.434c-2.34-.729-2.621-1.01-3.35-3.35a1.8,1.8,0,0,0-3.43,0c-.729,2.34-1.01,2.621-3.35,3.35a1.8,1.8,0,0,0,0,3.43c2.34.729,2.622,1.01,3.35,3.349a1.8,1.8,0,0,0,3.43,0c.729-2.34,1.01-2.622,3.349-3.35a1.8,1.8,0,0,0,0-3.43Zm-5.065,4.225a4.77,4.77,0,0,0-2.51-2.51,4.77,4.77,0,0,0,2.51-2.51,4.77,4.77,0,0,0,2.51,2.51A4.77,4.77,0,0,0,41.126,136.66Z" transform="translate(-34.798 -127.822)" fill="#4a9a47" stroke="#4a9a47" stroke-width="1"/>
        </g>
      </g>
      <g id="Group_71" data-name="Group 71" transform="translate(39.327 59.079)">
        <g id="Group_70" data-name="Group 70">
          <path id="Path_137" data-name="Path 137" d="M245.2,389.2c-1.871-.583-2.043-.755-2.626-2.625a1.7,1.7,0,0,0-3.25,0c-.583,1.871-.754,2.043-2.624,2.625a1.7,1.7,0,0,0,0,3.25c1.871.583,2.043.755,2.626,2.627a1.7,1.7,0,0,0,3.25,0c.583-1.871.754-2.043,2.625-2.626a1.7,1.7,0,0,0,0-3.25Zm-4.251,3.23a3.981,3.981,0,0,0-1.6-1.6,3.978,3.978,0,0,0,1.6-1.6,3.981,3.981,0,0,0,1.6,1.6A3.98,3.98,0,0,0,240.947,392.432Z" transform="translate(-235.501 -385.381)" fill="#4a9a47" stroke="#4a9a47" stroke-width="1"/>
        </g>
      </g>
      <g id="Group_73" data-name="Group 73" transform="translate(72.986 21.233)">
        <g id="Group_72" data-name="Group 72" transform="translate(0 0)">
          <path id="Path_138" data-name="Path 138" d="M446.758,162.573c-1.871-.583-2.043-.755-2.626-2.625a1.7,1.7,0,0,0-3.25,0c-.583,1.871-.754,2.043-2.625,2.625a1.7,1.7,0,0,0,0,3.25c1.871.583,2.043.755,2.626,2.626a1.7,1.7,0,0,0,3.25,0c.583-1.871.755-2.043,2.626-2.626a1.7,1.7,0,0,0,0-3.25Zm-4.251,3.23a3.98,3.98,0,0,0-1.6-1.6,3.981,3.981,0,0,0,1.6-1.6,3.98,3.98,0,0,0,1.6,1.6A3.981,3.981,0,0,0,442.507,165.8Z" transform="translate(-437.06 -158.751)" fill="#4a9a47" stroke="#4a9a47" stroke-width="1"/>
        </g>
      </g>
      <g id="Group_75" data-name="Group 75" transform="translate(0 23.563)">
        <g id="Group_74" data-name="Group 74" transform="translate(0 0)">
          <path id="Path_139" data-name="Path 139" d="M82.03,217.049v-9.394a1.252,1.252,0,1,0-2.5,0v8.7a4.083,4.083,0,0,0-4.188-1.16,4.1,4.1,0,0,0-7.409,1.371,4.149,4.149,0,0,0-1.29.02,4.1,4.1,0,0,0-8.129.717v4.277H53.385V195.455h26.14v5.52a1.252,1.252,0,0,0,2.5,0v-5.52h1.3a1.543,1.543,0,0,0,1.126-2.729L65.271,173.657a3.543,3.543,0,0,0-2.31-.953h0l-36.367,0a3.426,3.426,0,0,0-2.222.95L17.987,180a1.252,1.252,0,1,0,1.766,1.776l6.516-6.478,1.254,1.26L11.358,192.726a1.174,1.174,0,0,1-.54.224h-2.3l7.064-7.021a1.252,1.252,0,0,0-1.766-1.776l-8.625,8.573a1.543,1.543,0,0,0,1.126,2.729H10.4v4.906a13.244,13.244,0,0,1-1.372.486,1.8,1.8,0,0,0,0,3.431,13.207,13.207,0,0,1,1.372.486v8.454a4.921,4.921,0,0,0-3.662,2.821A4.916,4.916,0,0,0,0,220.6v2.236a1.252,1.252,0,0,0,1.252,1.252h83a1.252,1.252,0,0,0,1.252-1.252V221.1A4.1,4.1,0,0,0,82.03,217.049ZM10.4,221.582H2.5V220.6a2.408,2.408,0,0,1,2.406-2.406,2.383,2.383,0,0,1,1.737.745,1.257,1.257,0,0,0,2.158-.88A2.408,2.408,0,0,1,10.4,215.8ZM81.127,192.95H47.693a1.168,1.168,0,0,1-.537-.223L44.3,189.859H78.018Zm-10.59-10.527H65.962a1.252,1.252,0,0,0,0,2.5h7.1l2.441,2.426H41.806l-2.416-2.426H58.948a1.252,1.252,0,0,0,0-2.5H36.9L34.48,180H68.1Zm-7.577-7.214a1.185,1.185,0,0,1,.545.224l2.071,2.059H31.986l-2.268-2.277ZM33.6,221.582H24.523V199.431H33.6v22.151Zm2.5,0V199.013a2.09,2.09,0,0,0-2.087-2.087H24.106a2.09,2.09,0,0,0-2.087,2.087v22.569H12.9v-13.14a1.8,1.8,0,0,0,2.9-.815c.729-2.34,1.011-2.622,3.351-3.35a1.8,1.8,0,0,0,0-3.43c-2.34-.729-2.621-1.01-3.35-3.349a1.8,1.8,0,0,0-2.9-.816v-1.644a1.175,1.175,0,0,1,.224-.54L29.29,178.335l16.091,16.159a3.526,3.526,0,0,0,2.312.96H50.88v26.127H36.1Zm-24.518-19.02a4.769,4.769,0,0,0,2.51-2.51,4.77,4.77,0,0,0,2.51,2.51,4.77,4.77,0,0,0-2.51,2.51A4.768,4.768,0,0,0,11.583,202.562ZM83,221.582H61.013v-4.277a1.591,1.591,0,1,1,3.182,0v1.2a1.252,1.252,0,0,0,2.088.932,1.587,1.587,0,0,1,1.06-.408,1.571,1.571,0,0,1,.971.334,1.253,1.253,0,0,0,2.02-.99v-.912a1.591,1.591,0,0,1,3.152-.308,1.253,1.253,0,0,0,2.02.731,1.57,1.57,0,0,1,1-.356,1.6,1.6,0,0,1,1.591,1.6,1.253,1.253,0,0,0,2.158.866,1.576,1.576,0,0,1,1.149-.493A1.593,1.593,0,0,1,83,221.1Z" transform="translate(0 -172.704)" fill="#4a9a47" stroke="#4a9a47" stroke-width="1"/>
        </g>
      </g>
      <g id="Group_77" data-name="Group 77" transform="translate(30.298 58.491)">
        <g id="Group_76" data-name="Group 76">
          <path id="Path_140" data-name="Path 140" d="M182.687,381.858a1.252,1.252,0,0,0-1.252,1.252v1.762a1.252,1.252,0,0,0,2.5,0V383.11A1.252,1.252,0,0,0,182.687,381.858Z" transform="translate(-181.435 -381.858)" fill="#4a9a47" stroke="#4a9a47" stroke-width="1"/>
        </g>
      </g>
      <g id="Group_79" data-name="Group 79" transform="translate(37.657 50.267)">
        <g id="Group_78" data-name="Group 78">
          <path id="Path_141" data-name="Path 141" d="M230.426,332.612h-3.173a1.755,1.755,0,0,0-1.753,1.753v3.841a1.755,1.755,0,0,0,1.753,1.753h3.173a1.755,1.755,0,0,0,1.753-1.753v-3.841A1.755,1.755,0,0,0,230.426,332.612Zm-.751,4.843H228v-2.338h1.67Z" transform="translate(-225.5 -332.612)" fill="#4a9a47" stroke="#4a9a47" stroke-width="1"/>
        </g>
      </g>
      <g id="Group_81" data-name="Group 81" transform="translate(56.36 0)">
        <g id="Group_80" data-name="Group 80">
          <path id="Path_142" data-name="Path 142" d="M346.1,31.6a8.6,8.6,0,1,0,8.6,8.6A8.61,8.61,0,0,0,346.1,31.6Zm0,14.7a6.1,6.1,0,1,1,6.1-6.1A6.1,6.1,0,0,1,346.1,46.294Z" transform="translate(-337.5 -31.599)" fill="#4a9a47" stroke="#4a9a47" stroke-width="1"/>
        </g>
      </g>
    </g>
  </g>
</svg>
