<svg xmlns="http://www.w3.org/2000/svg" width="149" height="124" viewBox="0 0 149 124">
  <g id="Group_857" data-name="Group 857" transform="translate(-37 -2728)">
    <g id="Rectangle_9" data-name="Rectangle 9" transform="translate(37 2728)" fill="#fff" stroke="#707070" stroke-width="5">
      <rect width="149" height="124" stroke="none"/>
      <rect x="2.5" y="2.5" width="144" height="119" fill="none"/>
    </g>
    <g id="inspection" transform="translate(71.873 2756.982)">
      <g id="Group_87" data-name="Group 87" transform="translate(6.797 38.928)">
        <g id="Group_86" data-name="Group 86">
          <path id="Path_145" data-name="Path 145" d="M106.272,269.361a1.159,1.159,0,0,0-1.159,1.159V302.11H49.347v-9.346a1.159,1.159,0,0,0-2.317,0v10.5a1.159,1.159,0,0,0,1.159,1.159h58.084a1.159,1.159,0,0,0,1.159-1.159V270.52A1.158,1.158,0,0,0,106.272,269.361Z" transform="translate(-47.03 -269.361)" fill="#4a9a47" stroke="#4a9a47" stroke-width="1"/>
        </g>
      </g>
      <g id="Group_89" data-name="Group 89" transform="translate(0)">
        <g id="Group_88" data-name="Group 88">
          <path id="Path_146" data-name="Path 146" d="M73.536,27.424,37.7.236a1.158,1.158,0,0,0-1.4,0L22.09,11.013V7.26H23.4A1.159,1.159,0,0,0,24.562,6.1V1.159A1.159,1.159,0,0,0,23.4,0H6.1A1.159,1.159,0,0,0,4.943,1.159V6.1A1.159,1.159,0,0,0,6.1,7.261H7.415V22.146L.458,27.424a1.159,1.159,0,0,0,.7,2.082H6.8V56.153a1.159,1.159,0,1,0,2.317,0V28.347a1.159,1.159,0,0,0-1.159-1.159H4.6L37,2.613,69.392,27.188H66.039a1.159,1.159,0,0,0-1.159,1.159v5.561a1.159,1.159,0,1,0,2.317,0v-4.4h5.639a1.159,1.159,0,0,0,.7-2.082ZM7.26,4.943V2.317H22.245V4.943Zm12.513,7.828L9.732,20.388V7.26H19.773Z" transform="translate(0)" fill="#4a9a47" stroke="#4a9a47" stroke-width="1"/>
        </g>
      </g>
      <g id="Group_91" data-name="Group 91" transform="translate(10.891 18.692)">
        <g id="Group_90" data-name="Group 90">
          <path id="Path_147" data-name="Path 147" d="M126.552,174.38l-8.651-8.651a3.5,3.5,0,0,0-3.954-.677l-5.726-5.726a18.441,18.441,0,0,0,.137-22.9,1.159,1.159,0,0,0-1.824,1.429,15.98,15.98,0,0,1,3.426,9.945A16.136,16.136,0,1,1,102.1,133.94a1.159,1.159,0,1,0,1.191-1.987,18.466,18.466,0,1,0,3.365,29.09l5.65,5.65a3.479,3.479,0,0,0,.676,3.953l8.651,8.651a3.476,3.476,0,0,0,4.915-4.915Zm-1.577,3.211a1.17,1.17,0,0,1-1.7.066l-8.651-8.651a1.159,1.159,0,0,1,1.639-1.638l8.651,8.651A1.171,1.171,0,0,1,124.975,177.591Z" transform="translate(-75.356 -129.336)" fill="#4a9a47" stroke="#4a9a47" stroke-width="1"/>
        </g>
      </g>
      <g id="Group_93" data-name="Group 93" transform="translate(15.834 23.635)">
        <g id="Group_92" data-name="Group 92">
          <path id="Path_148" data-name="Path 148" d="M123.078,163.541a13.517,13.517,0,1,0,13.517,13.517A13.532,13.532,0,0,0,123.078,163.541Zm0,24.716a11.2,11.2,0,1,1,11.2-11.2A11.212,11.212,0,0,1,123.078,188.257Z" transform="translate(-109.561 -163.541)" fill="#4a9a47" stroke="#4a9a47" stroke-width="1"/>
        </g>
      </g>
      <g id="Group_95" data-name="Group 95" transform="translate(19.541 31.05)">
        <g id="Group_94" data-name="Group 94">
          <path id="Path_149" data-name="Path 149" d="M154.721,220.453c-1.518-3.2-5.687-5.6-9.7-5.6s-8.179,2.41-9.7,5.6a1.159,1.159,0,0,0,0,.995c1.518,3.2,5.687,5.6,9.7,5.6s8.179-2.41,9.7-5.6A1.161,1.161,0,0,0,154.721,220.453Zm-13.63,3.357a8.038,8.038,0,0,1-3.4-2.86,8.043,8.043,0,0,1,3.4-2.86,4.852,4.852,0,0,0,0,5.72Zm3.933-.311a2.549,2.549,0,1,1,2.549-2.549A2.552,2.552,0,0,1,145.024,223.5Zm3.933.311a4.852,4.852,0,0,0,0-5.72,8.041,8.041,0,0,1,3.4,2.86A8.041,8.041,0,0,1,148.957,223.81Z" transform="translate(-135.215 -214.848)" fill="#4a9a47" stroke="#4a9a47" stroke-width="1"/>
        </g>
      </g>
    </g>
  </g>
</svg>
