<svg xmlns="http://www.w3.org/2000/svg" width="149" height="125" viewBox="0 0 149 125">
  <g id="Group_849" data-name="Group 849" transform="translate(-224 -1929)">
    <g id="Rectangle_3" data-name="Rectangle 3" transform="translate(224 1929)" fill="#fff" stroke="#707070" stroke-width="5">
      <rect width="149" height="125" stroke="none"/>
      <rect x="2.5" y="2.5" width="144" height="120" fill="none"/>
    </g>
    <path id="roof" d="M103.1,113.039c-.728,1.273-1.284,1.479-2.711.982-2.666-.921-5.323-1.863-8-2.752a2.01,2.01,0,0,0-1.18,0q-4.009,1.336-7.991,2.752a2.879,2.879,0,0,1-2.042,0Q77.2,112.6,73.188,111.26a2.119,2.119,0,0,0-1.257,0q-4.014,1.336-7.993,2.764a2.8,2.8,0,0,1-1.976,0c-2.659-.944-5.318-1.874-7.993-2.752a2.269,2.269,0,0,0-1.332.011q-3.971,1.32-7.918,2.734a2.879,2.879,0,0,1-2.042,0q-3.982-1.409-8-2.75a2.113,2.113,0,0,0-1.255,0c-2.675.894-5.33,1.84-7.993,2.764-1.679.59-2.555-.111-2.668-1.881a31.957,31.957,0,0,1,1.307-10.035Q29.259,81.6,34.354,61.031c.424-1.693.785-1.981,2.555-1.981H89c1.713,0,2.1.306,2.5,1.944q5.672,22.689,11.345,45.364a6.627,6.627,0,0,0,.261.719ZM43.942,92.013c-2.233-.774-4.422-1.541-6.621-2.269a1.28,1.28,0,0,0-.744.1c-1.967.681-3.932,1.4-5.915,2.067a1.114,1.114,0,0,0-.824.908c-.465,1.981-.964,3.955-1.457,5.929-.508,2.042-1.023,4.084-1.572,6.258a31.982,31.982,0,0,0,3.578-1.264,7.734,7.734,0,0,1,7.249-.018,45.319,45.319,0,0,0,4.638,1.627c.567-4.5,1.109-8.9,1.665-13.337Zm17.244,13.21a2.213,2.213,0,0,0,.061-.343c0-4.1.014-8.2-.016-12.3a.951.951,0,0,0-.515-.681c-1.967-.719-3.932-1.4-5.9-2.06a1.663,1.663,0,0,0-.964,0c-1.976.663-3.93,1.377-5.913,2.042a.908.908,0,0,0-.7.871c-.259,2.335-.588,4.663-.869,6.993-.227,1.754-.427,3.508-.651,5.357.338-.1.59-.163.826-.247,1.847-.642,3.7-1.266,5.534-1.944a3.428,3.428,0,0,1,2.5,0c2.169.792,4.368,1.532,6.614,2.31ZM99.076,105c-1.075-4.288-2.1-8.395-3.163-12.52a.969.969,0,0,0-.59-.511c-1.836-.681-3.7-1.289-5.52-1.994a2.777,2.777,0,0,0-2.1,0c-1.9.7-3.828,1.348-5.774,2.024l1.643,13.33c2.4-.833,4.694-1.609,6.968-2.435a3.428,3.428,0,0,1,2.5,0c1.947.722,3.9,1.377,6.017,2.115Zm-34.4.2c.3-.1.549-.168.787-.252,1.965-.681,3.946-1.35,5.9-2.069a3.369,3.369,0,0,1,2.428,0c1.836.681,3.689,1.3,5.536,1.947.252.086.515.15.787.227a1.182,1.182,0,0,0,.048-.25c-.508-4.068-1.005-8.136-1.547-12.2a1.116,1.116,0,0,0-.635-.712c-1.956-.724-3.93-1.407-5.9-2.065a1.727,1.727,0,0,0-1.039,0c-1.906.631-3.789,1.33-5.7,1.965a.862.862,0,0,0-.719.982c.027,3.891.014,7.785.016,11.678a4.282,4.282,0,0,0,.016.756ZM94.729,88.2a1.393,1.393,0,0,0,.034-.306C93.9,84.425,93.037,80.959,92.14,77.5a1.055,1.055,0,0,0-.61-.574c-1.2-.454-2.453-.751-3.61-1.282a4.783,4.783,0,0,0-4.311,0,37.1,37.1,0,0,1-3.587,1.284c.492,3.932.973,7.753,1.463,11.669,2-.692,3.952-1.327,5.876-2.042a3.671,3.671,0,0,1,2.8.018C91.659,87.159,93.191,87.654,94.729,88.2ZM45.823,76.929c-1.865-.649-3.68-1.293-5.5-1.906a1.318,1.318,0,0,0-.742.079c-1.729.59-3.446,1.2-5.182,1.767a1.039,1.039,0,0,0-.785.842c-.815,3.317-1.647,6.632-2.469,9.947a3.151,3.151,0,0,0-.039.547c1.556-.547,3.049-1.014,4.5-1.588a3.785,3.785,0,0,1,2.95-.025c1.892.724,3.83,1.336,5.813,2.022C44.856,84.677,45.335,80.82,45.823,76.929ZM47.79,88.376a30.107,30.107,0,0,0,3.251-1.155,6.957,6.957,0,0,1,6.58,0,30.284,30.284,0,0,0,3.537,1.243,1.532,1.532,0,0,0,.086-.3c0-3.578.016-7.158-.014-10.736a.888.888,0,0,0-.52-.608q-2.457-.908-4.948-1.727a1.361,1.361,0,0,0-.812-.014c-1.77.588-3.512,1.178-5.248,1.815a1.016,1.016,0,0,0-.547.692c-.288,1.967-.524,3.932-.771,5.9-.209,1.588-.39,3.152-.6,4.887Zm16.833.1c.372-.118.642-.2.908-.288,1.679-.59,3.342-1.218,5.039-1.722a3.658,3.658,0,0,1,1.965,0c1.572.454,3.113,1.066,4.665,1.606.254.086.517.141.844.227a5.674,5.674,0,0,0-.027-.579c-.424-3.424-.84-6.848-1.293-10.265a.961.961,0,0,0-.59-.59q-2.539-.926-5.112-1.77a1.67,1.67,0,0,0-.967,0c-1.588.524-3.145,1.119-4.737,1.627a.855.855,0,0,0-.71.982c.027,3.269.014,6.539.014,9.808Zm35.041,21.747c.245-1.375.245-1.375-.951-1.792-2.1-.731-4.186-1.477-6.289-2.162a2.165,2.165,0,0,0-1.259,0q-4.011,1.341-7.993,2.777a2.766,2.766,0,0,1-1.965,0q-4.02-1.436-8.057-2.791a1.974,1.974,0,0,0-1.18,0q-4.009,1.341-7.989,2.766a2.836,2.836,0,0,1-2.042,0q-4.016-1.441-8.059-2.8a1.858,1.858,0,0,0-1.112,0q-4.048,1.361-8.059,2.793a2.777,2.777,0,0,1-1.965.016q-4.059-1.441-8.143-2.8a1.858,1.858,0,0,0-1.112,0c-2.128.712-4.243,1.468-6.353,2.21-1.134.393-1.212.535-.86,1.767,2.269-.785,4.538-1.572,6.789-2.373a2.8,2.8,0,0,1,1.969-.016c2.657.939,5.318,1.87,7.993,2.752a2.244,2.244,0,0,0,1.327,0c2.65-.883,5.284-1.815,7.914-2.752a3,3,0,0,1,2.131,0c2.607.926,5.218,1.842,7.844,2.723a2.394,2.394,0,0,0,1.4,0c2.627-.869,5.237-1.788,7.841-2.723a3.129,3.129,0,0,1,2.205,0c2.63.937,5.264,1.863,7.909,2.752a2.01,2.01,0,0,0,1.18,0c2.131-.7,4.293-1.348,6.353-2.228a6.336,6.336,0,0,1,5.4,0A42.523,42.523,0,0,0,99.664,110.223ZM47.631,62.442c-.356-.02-.59-.043-.817-.043-2.875,0-5.752.016-8.622-.018-.6,0-.8.2-.933.756-.769,3.163-1.577,6.339-2.362,9.5a2.328,2.328,0,0,0,0,.533c1.164-.395,2.3-.712,3.376-1.18a4.395,4.395,0,0,1,3.689.018c1.375.59,2.829,1,4.3,1.516C46.715,69.8,47.166,66.174,47.631,62.442ZM78.218,62.4c.474,3.791.93,7.426,1.4,11.118,1.767-.617,3.451-1.178,5.11-1.79a2.832,2.832,0,0,1,2.042,0c1.377.508,2.788.957,4.266,1.461-.016-.186-.041-.37-.075-.554-.787-3.181-1.609-6.367-2.376-9.563-.134-.567-.393-.681-.908-.681-2.326.023-4.654,0-6.981,0ZM61.2,62.456H50.992c-.454,3.614-.892,7.179-1.35,10.873,1.232-.424,2.36-.708,3.385-1.18a5.171,5.171,0,0,1,4.579.014c1.134.513,2.342.828,3.583,1.255Zm15,10.877c-.454-3.716-.908-7.281-1.361-10.891H64.668V73.41c1.375-.474,2.709-.846,3.971-1.386a4.461,4.461,0,0,1,3.762-.016c1.184.511,2.439.853,3.8,1.318Z" transform="translate(235.753 1915)" fill="#4a9a47"/>
  </g>
</svg>
