<svg xmlns="http://www.w3.org/2000/svg" width="149" height="124" viewBox="0 0 149 124">
  <g id="Group_852" data-name="Group 852" transform="translate(-39 -2143)">
    <g id="Rectangle_3" data-name="Rectangle 3" transform="translate(39 2143)" fill="#fff" stroke="#707070" stroke-width="5">
      <rect width="149" height="124" stroke="none"/>
      <rect x="2.5" y="2.5" width="144" height="119" fill="none"/>
    </g>
    <g id="speedometer" transform="translate(74.95 2176.945)">
      <path id="Path_119" data-name="Path 119" d="M37.753,75.505A37.753,37.753,0,1,0,0,37.753,37.834,37.834,0,0,0,37.753,75.505ZM16.1,63.064a29.07,29.07,0,0,1,43.315,0,33.26,33.26,0,0,1-43.315,0ZM13.373,35.541a24.371,24.371,0,0,1,5.584-13.454l3.006,3.006,3.129-3.129-3.006-3.006a24.371,24.371,0,0,1,13.454-5.584V17.7h4.424V13.373a24.371,24.371,0,0,1,13.454,5.584l-3.006,3.006,3.129,3.129,3.006-3.006a24.375,24.375,0,0,1,5.584,13.454H57.809v4.422h4.322a24.645,24.645,0,0,1-6.258,14.318,33.516,33.516,0,0,0-36.24,0,24.642,24.642,0,0,1-6.258-14.316H17.7V35.541ZM37.753,4.424A33.31,33.31,0,0,1,62.576,59.967a33.117,33.117,0,0,0-3.136-3.039A28.922,28.922,0,1,0,8.848,37.753a29.12,29.12,0,0,0,7.217,19.175,33.115,33.115,0,0,0-3.136,3.039A33.31,33.31,0,0,1,37.753,4.424Zm0,0" fill="#4a9a47"/>
      <path id="Path_120" data-name="Path 120" d="M211,392h13.272v4.424H211Zm0,0" transform="translate(-179.884 -334.191)" fill="#4a9a47"/>
      <path id="Path_121" data-name="Path 121" d="M173.421,182.543a6.636,6.636,0,1,0,9.12-9.12l-.114-.07-16.641-7.565,7.565,16.64Zm6.911-5.282a2.213,2.213,0,1,1-3.073,3.073L174.7,174.7Zm0,0" transform="translate(-141.337 -141.34)" fill="#4a9a47"/>
    </g>
  </g>
</svg>
