<svg xmlns="http://www.w3.org/2000/svg" width="149" height="124" viewBox="0 0 149 124">
  <g id="Group_845" data-name="Group 845" transform="translate(-224 -1503)">
    <g id="Rectangle_3" data-name="Rectangle 3" transform="translate(224 1503)" fill="#fff" stroke="#707070" stroke-width="5">
      <rect width="149" height="124" stroke="none"/>
      <rect x="2.5" y="2.5" width="144" height="119" fill="none"/>
    </g>
    <g id="stage" transform="translate(251.35 1526.619)">
      <path id="Path_47" data-name="Path 47" d="M97.549,40.055A1.451,1.451,0,0,0,96.1,41.5v61.971H93.2V31.45A1.451,1.451,0,0,0,91.749,30H7.251A1.451,1.451,0,0,0,5.8,31.45v72.026H2.9V97.192a1.45,1.45,0,0,0-2.9,0v7.734a1.45,1.45,0,0,0,1.45,1.45H5.8v.483a1.45,1.45,0,0,0,1.45,1.45H22a1.45,1.45,0,0,0,1.438-1.641l-.039-.293H68.062a1.45,1.45,0,0,0,0-2.9H23.018l-.383-2.9h53.73l-.383,2.9H74.25a1.45,1.45,0,1,0,0,2.9H75.6l-.039.293A1.45,1.45,0,0,0,77,108.31H91.749a1.45,1.45,0,0,0,1.45-1.45v-.483H97.55a1.45,1.45,0,0,0,1.45-1.45V41.5a1.451,1.451,0,0,0-1.45-1.45ZM81.114,71.928a1.45,1.45,0,0,1,0-2.9H90.3v2.9ZM77.077,32.9l6.358,25.88a1.45,1.45,0,0,0,2.817-.692L80.063,32.9h4.168L85.47,47.238a1.45,1.45,0,0,0,1.443,1.325c.042,0,.084,0,.126-.005a1.45,1.45,0,0,0,1.32-1.57L87.142,32.9H90.3V66.127H82.425L74.263,32.9Zm-65.219,0L10.64,46.988a1.45,1.45,0,0,0,1.32,1.57c.042,0,.085.005.126.005a1.451,1.451,0,0,0,1.443-1.326L14.769,32.9h4.168L12.748,58.088a1.45,1.45,0,1,0,2.817.692L21.923,32.9h2.814L16.574,66.127H8.7V32.9Zm6.028,39.028H8.7v-2.9h9.185a1.45,1.45,0,1,1,0,2.9ZM8.7,105.41V74.828h7.607l4.039,30.582ZM19.207,74.622a4.35,4.35,0,0,0,.279-8.189L27.724,32.9H48.05V97.675h-25.8ZM50.95,97.676V32.9H71.275l8.238,33.533a4.35,4.35,0,0,0,.279,8.189L76.747,97.676ZM90.3,105.41H78.652l4.039-30.582H90.3Zm0,0" transform="translate(0 -24.199)" fill="#4a9a47"/>
      <path id="Path_48" data-name="Path 48" d="M97.549,0H1.45A1.451,1.451,0,0,0,0,1.45V66.805a1.45,1.45,0,1,0,2.9,0V2.9H96.1v8.218a1.45,1.45,0,0,0,2.9,0V1.45A1.451,1.451,0,0,0,97.549,0Zm0,0" fill="#4a9a47"/>
    </g>
  </g>
</svg>
